<svg width="64" height="64" viewBox="0 0 64 64" fill="none" xmlns="http://www.w3.org/2000/svg">
<g clip-path="url(#clip0_213_110)">
<path d="M6 45.5C4.61929 45.5 3.5 46.6193 3.49999 48C3.49999 49.3807 4.61927 50.5 5.99999 50.5L6 45.5ZM12 52L9.76394 53.118L12 52ZM18.4721 58.5L23 58.5L23 53.5L18.4721 53.5L18.4721 58.5ZM9.55281 52.6958L9.76394 53.118L14.2361 50.8819L14.0249 50.4597L9.55281 52.6958ZM5.99999 50.5C7.50454 50.5 8.87996 51.35 9.55281 52.6958L14.0249 50.4597C12.5051 47.4201 9.39841 45.5 6 45.5L5.99999 50.5ZM18.4721 53.5C16.6782 53.5 15.0383 52.4864 14.2361 50.8819L9.76394 53.118C11.4132 56.4164 14.7844 58.5 18.4721 58.5L18.4721 53.5Z" fill="black"/>
<path fill-rule="evenodd" clip-rule="evenodd" d="M26.6337 34.8536C26.4787 35.0837 26.3373 35.3254 26.2111 35.5777L23.6584 40.6833C22.5678 42.8645 22 45.2696 22 47.7082V118C22 123.523 26.4772 128 32 128C37.5228 128 42 123.523 42 118V47.7082C42 45.2696 41.4322 42.8645 40.3416 40.6833L37.7889 35.5777C37.6627 35.3254 37.5213 35.0837 37.3663 34.8536L36 35V43.1898C36.6582 44.6039 37 46.146 37 47.7082V118C37 120.761 34.7614 123 32 123C29.2386 123 27 120.761 27 118V47.7082C27 46.146 27.3418 44.6039 28 43.1898V35L26.6337 34.8536Z" fill="black"/>
<path fill-rule="evenodd" clip-rule="evenodd" d="M55 22C55 24.1136 54.9229 26.8905 52.7577 29.3341C50.8431 31.4949 46.4202 34.3161 36 34.8939V39.9005C60 38.6607 60 26.1796 60 22C60 17.6 60 0 32 0C4 0 4 17.6 4 22C4 26.1796 4 38.6607 28 39.9005V34.8939C17.5799 34.3161 13.157 31.4949 11.2423 29.3341C9.07707 26.8905 9 24.1136 9 22C9 19.8647 9.06461 15.7977 11.5826 12.2367C13.8775 8.99099 19.0958 5 32 5C44.9042 5 50.1225 8.99099 52.4174 12.2367C54.9354 15.7977 55 19.8647 55 22Z" fill="black"/>
</g>
<defs>
<clipPath id="clip0_213_110">
<rect width="64" height="64" fill="white"/>
</clipPath>
</defs>
</svg>
